<?xml version="1.0" encoding="utf-8"?>
<!-- Generator: Adobe Illustrator 24.0.2, SVG Export Plug-In . SVG Version: 6.00 Build 0)  -->
<svg version="1.1" id="Layer_1" xmlns="http://www.w3.org/2000/svg" xmlns:xlink="http://www.w3.org/1999/xlink" x="0px" y="0px"
	 viewBox="0 0 483 483" style="enable-background:new 0 0 483 483;" xml:space="preserve">
<style type="text/css">
	.st0{fill:#FFFFFF;}
</style>
<circle cx="241.6" cy="241.5" r="240.9"/>
<g>
	<path class="st0" d="M197.4,383.8c-11.6-6.2-38.8-27.1-41.8-29.6c-6.2-5-28.2-24.7-33.3-32.1c-2.8-4.1-1.4-7.5,2.8-2.7
		c9,8.6,17.8,17.4,26.8,26c3.2,3,6.6,5.9,9.9,8.8l0.9-1c-0.7-1.1-1.3-2.3-2.1-3.3c-4.7-6.5-9.6-12.7-14-19.4
		c-12.2-18.3-22.8-37.5-38-53.7c-7.5-8-15.7-14.3-25.8-18.3c-19-7.6-36-8.2-41.9,8.4c-2.6,7.3-1.1,27.1,2.7,37.4
		c4.5,12.2,11.4,23.4,21.4,31.5c16.3,13.4,33.3,25.9,51,37.4c16.3,10.4,34.5,17.6,54.2,18.8C202,394.9,203.2,386.9,197.4,383.8
		L197.4,383.8z M80.2,338.5c-31.5-28.8-28.8-41.8-28.8-41.8c9.7,21.4,25.8,35.6,38.7,45.8c9.4,7.5,43.8,27.2,46.3,28.7
		C126.6,367.5,97.6,354.4,80.2,338.5z M124.1,359.1l55.8,27C158.1,382.3,141,370.9,124.1,359.1z"/>
	<path class="st0" d="M428,270c-11.6-6.4-48.7-8.9-61.5,11.5c-5.4,8.6-9.3,18-13.5,27.2c-9.4,20.4-17.5,41.4-30.4,60
		c-3.2,4.6-6.4,9.3-9.8,13.9c-6.1,8.2-1.8,7.2,4.8,5.1c5.8-2.5,11.4-5.5,17.1-8.1c17.3-7.9,33.9-17.1,48-30
		c3.7-3.4,6.8-4.9,11.2-1.7c2.6,2.1,6.3,2,8.8-0.1c10.2-7.8,19.7-16.5,26.5-27.5c4.4-7.1,10-14.1,11.6-22.4
		C441.6,294.4,441.2,277.2,428,270L428,270z"/>
	<path class="st0" d="M229,454.2c1.9,2.3,10,2.2,12,0c6.3-7.1-5.6-22.8-7.6-24.8C232.1,431.5,222.2,446,229,454.2z"/>
	<path class="st0" d="M69.3,196.2c7,26,20,50,37.8,70.2c13.2,14.9,25.3,30.5,34.7,48.1c1.8,3.5,10.3,15.6,12.8,19.3
		c10.4,15.5,20.9,29.6,35.8,40.3c8.1,5.8,10.1,4,7.9,2c-8.7-7.9-15.6-19.5-21.8-30.1s-10.5-22.5-15.7-33.9c0,0,7.6,6,10,9.9
		c6.7,10.5,12.8,21.6,19.9,31.7s12.8,23.8,20.8,31.8c18.5,18.6,47.5,14.4,56-2.4c5.7-11.3,4.4-25-4.1-31.5c-5.7-4.4-7.3-4.1-11.3,2
		c-0.7,1.1-1.6,2.1-2.6,3.1c-3.3,3.1-6.2,2.6-8.5-1.4c-1.5-2.4-2.8-4.9-3.9-7.5c-2.2-5.5-6.3-6.5-11.7-5.9c-5.2,0.5-8.1,3-9.8,7.8
		c-2.4,7.2-5.5,21.6-7.7,21.3c-2.1-0.3-3.5-4.9-3.7-7.6c-1.6-23.9-3.2-47.9-4.4-71.8c-1.5-28.4-7.7-55.5-19.7-81.5
		c-11.2-24.2-27.6-43.8-48.5-60c-10.9-8.4-21.7-17-32.7-25.4c-5.1-4.1-10.3-7.8-15.8-11.3c-7.1-4.2-12.3-3.3-17.9,2.6
		c-9.6,10.2-9.9,22.8-7.4,35.2C61,166.3,65.2,181.3,69.3,196.2L69.3,196.2z M227.1,377.4c0.4-4.6,4.4-8,8.9-7.6c5,0.2,8.2,3.5,8,8.2
		l0,0c-0.2,4.6-3.4,7.5-8.1,7.3C231.6,385.1,226.9,380.9,227.1,377.4L227.1,377.4z M174,266.6c12.6,5.9,20.3,22.1,16.8,35.6
		c-1,3.9-3.2,6-7.5,5.6c-4.3-0.5-8.7-0.5-12.9-1.4c-1.8-0.6-3.3-2-3.8-3.8c-2.4-8.1-4.6-23.7-4.6-28.4
		C162,266,166.3,263.1,174,266.6z M76.1,119.8c7.6,3.2,20.7,14.6,26,20.2c13.6,14.4,23.9,39,40.5,99.3c2,7.1,13.5,68.1,9.5,76.3
		c0.8-19.1-24.3-144.1-54.8-176.9c-2.9-3.1-14.7-13.9-20.7-16.5c-3.2-1.4-6.4-1.6-8,2.1c-4.1,9.4,1.3,28.1,4.2,33.8
		c3.2,6.2,1.1,7.3-0.7,16.4c-1.8,9.1,16.7,47.9,16.7,47.9c-9.1-10.5-15.6-31-18.5-41.5c-3.1-11.1,3.7-13.2,0-19s-5.9-23-5.9-32.1
		C64.3,120.6,70.7,117.5,76.1,119.8L76.1,119.8z"/>
	<path class="st0" d="M208.7,267.9c3.9,19,12.2,37.5,11.5,57.2c-0.2,6,9,7.3,11.4,0.5c5.6-23.6-0.4-42.2-5.7-54.1
		c-4.2-9.2-6.2-17.6-3.4-27.3c2.4-8.3,8.4-14.7,15.2-15.5c8.4-1.1,16.7,2.9,20.4,11.2c2.4,5.5,3.6,11.7,4.4,17.7
		c0.8,5.3-1.6,10.5-6.1,13.4c-5.6,3.6-8.7,10-8.2,16.7c0.6,12.3,1.2,24.6,2.1,36.9c0.1,3,0.9,5.9,2.3,8.6c1.3,1.8,3.2,3,5.4,3.3
		c1.5,0.1,3.9-1.6,4.5-3c1.7-4,2.8-8.2,3.4-12.5c1-9.2,0.8-18.6,2.3-27.8c3-29.3,7.7-42.3,11.2-52.9c9.6-29.4,25.8-56.4,49-78.2
		c1.2-1.1,2.4-3.2,2.2-4.6c-1.5-13.9-6.8-25.7-19.4-33.1c-6.4-3.8-12.5-2.9-17.8,2.2c-9.1,8.8-14.1,19.9-15.4,32.3
		c-1.8,17.1-2.6,34.2-4,51.3c-0.7,8.6-0.7,21.6-2.5,25.6c-1.4,3.2-1.2-6.7-1.1-10c1.3-25.9,2.7-51.9,3.8-77.8c0-3-0.9-5.9-2.6-8.3
		c-7.8-11.9-24.2-16.1-36.6-9c-7,4-13.9,8.7-19.6,14.5c-17.6,17.6-23.7,39.6-19.6,63.7C199.1,228.7,204.7,248.2,208.7,267.9
		L208.7,267.9z"/>
	<path class="st0" d="M173.3,143.8c12.7-0.1,18.4-8.8,12.5-20c-2.6-5-6.8-9.4-10.8-13.5c-3.7-3.9-8.4-3.5-12.8-0.9
		c-7.3,4.3-11,13.2-8.7,21C155.6,137.6,164.9,143.9,173.3,143.8L173.3,143.8z"/>
	<path class="st0" d="M193.2,403.7c-0.6,0.3-1.1,0.7-1.6,1.1c-4.9,3.8-6.4,9-4.3,15.2c2.2,6.4,6.6,9.4,11.1,9.4
		c9.8-0.1,15.5-2.4,20-7.4c3.4-3.5,3.6-9,0.4-12.8C215.8,405.5,197.4,401.4,193.2,403.7L193.2,403.7z"/>
	<path class="st0" d="M387.9,349.6c-1.1,0.2-16.6,15.3-24.5,19.5c-27.8,16.1-37.3,20-46.2,21.2c-2.4,0.3-5.9,2.4,7.8,2.4
		c8.4-0.8,20.9-4.6,30.1-9.2c7-3.4,26.8-16.3,39.4-30.6C395.6,351.9,389.7,349.3,387.9,349.6L387.9,349.6z"/>
	<path class="st0" d="M286.9,395.4c-3,0.4-5.9,1.1-8.7,2.1c-3.8,1.4-4.8,4.5-2.9,8c1.3,2.3,2.5,4.6,3.9,6.9
		c2.6,4.5,5.2,9.3,11.5,8.8c4.5-0.4,8-5.7,8.9-12.6c0.1-0.8,0.2-1.7,0.2-2.1C299.6,396.8,296.2,393.9,286.9,395.4L286.9,395.4z"/>
	<path class="st0" d="M276.6,106.2c2.1-3.7,1.6-12.1-4.5-20.7c-2.2-3.1-4.7-3.3-7.5-0.9c-6.5,5.4-8.2,17-3.7,24.2
		C262.9,112,270.9,115.9,276.6,106.2L276.6,106.2z"/>
	<path class="st0" d="M262.2,412.9c-5,0.1-11,5.9-11,10.6c0,6.6,4.1,10.5,11.2,10.6c7.2,0.1,12.2-3.3,12.5-8.2
		C275,420.9,267.2,412.8,262.2,412.9L262.2,412.9z"/>
	<path class="st0" d="M241.8,239.3c-4.8,0.2-9.5,6.9-9.4,13.6c0.1,5.9,3.1,9.7,7.8,9.7c5.6,0,10.9-5.9,10.9-12.2
		C251,244.4,246.6,239.2,241.8,239.3z"/>
	<path class="st0" d="M378.6,93c6,0.2,12.2-5.1,12.3-10.2c0.1-4.9-4.6-9-10.5-9.2c-0.1,0-0.1,0-0.2,0c-5.7-0.3-10.5,4.2-10.8,9.9
		C369.1,88.7,373,92.9,378.6,93L378.6,93z"/>
	<path class="st0" d="M377.6,230.9c5.7-14.6,12.9-28.6,18.2-43.2c4.9-13.4,5.7-27.3-0.4-40.9c-2.8-6.2-7.7-8.7-14.2-9.2
		c-12.6-0.9-22.2,4.6-30.2,13.7c-2.9,3.2-5.4,7.3-9.1,9.1c-11.3,5.7-19.1,15.1-26.7,24.4c-16.1,19.6-28.2,38.7-34.8,62.8
		c-1.5,5.6-1.4,14.5,1.9,16l9.4,6.5c9.9,4.6,8.8,36.3,7.5,48.2c-1.7,16.9-3.7,33.8-12.2,49.1c-1.4,2.5-1.9,5.7-2.8,8.5
		c-1,3.5,0.3,6.1,3.2,8.2c5.4,3.8,11,3.7,15.8-0.9c20.2-19.1,32.2-43.6,42.5-68.8C357,286.8,366.8,258.6,377.6,230.9L377.6,230.9z
		 M385.3,147.9c4.4,5.2,1.7,31.1-7.6,58.4v0c9.4-33.8,7.4-53.4,6.9-56.2c-0.6-3.3-3.9-3.9-6.3-3.9
		C380.7,146.1,383.9,146.3,385.3,147.9L385.3,147.9z M364.3,157.8c-0.3-2-0.2-4,0-6c0.8-3.8,4.3-3.8,4.6-0.4
		c3.7,51.9-4.1,94.3-12.5,106.3C356.1,258.1,373.2,219.8,364.3,157.8z M348.7,163.2c6.1,7.9,9.7,26.9,5.2,51.3
		c-0.2,1.3,3.6-38.3-8-52.6C345.6,161.6,347.7,161.9,348.7,163.2L348.7,163.2z"/>
	<path class="st0" d="M182.8,292.6c-0.1-3-0.9-8-2.3-10.6c-1.3-2.4-7.9-9.9-10-6.5c-2.3,3.8,1.1,15,2.7,17.5
		C176.3,297,182.8,294.6,182.8,292.6L182.8,292.6z"/>
	<path class="st0" d="M281.2,343.5c3.7,0.4,5.3-1.7,6.3-5c4.9-16,8.7-32.1,6.9-49.1c-0.1-2.1-2.9-13.7-7.5-17c-4.7-3.4-7-1-7.1,2.9
		c-1,20.5-1.9,40.9-2.8,61.4C276.9,339.6,277,343,281.2,343.5L281.2,343.5z"/>
</g>
</svg>
